<?xml version="1.0" encoding="utf-8"?>
<!-- Generator: Adobe Illustrator 27.5.0, SVG Export Plug-In . SVG Version: 6.00 Build 0)  -->
<svg version="1.1" xmlns="http://www.w3.org/2000/svg" xmlns:xlink="http://www.w3.org/1999/xlink" x="0px" y="0px"
	 viewBox="0 0 500 500" style="enable-background:new 0 0 500 500;" xml:space="preserve">
<g id="BACKGROUND">
	<rect style="fill:#FFFFFF;" width="500" height="500"/>
	<g style="opacity:0.1;">
		<defs>
			<rect id="SVGID_1_" style="opacity:0.1;" width="500" height="500"/>
		</defs>
		<clipPath id="SVGID_00000008844903511373148610000010819639803729984954_">
			<use xlink:href="#SVGID_1_"  style="overflow:visible;"/>
		</clipPath>
		<g style="clip-path:url(#SVGID_00000008844903511373148610000010819639803729984954_);">
			<g>
				
					<linearGradient id="SVGID_00000110451786905336375360000010129176653765355689_" gradientUnits="userSpaceOnUse" x1="805.1924" y1="344.7754" x2="805.1924" y2="457.2114" gradientTransform="matrix(0.9052 -0.425 0.425 0.9052 -550.0751 227.307)">
					<stop  offset="0" style="stop-color:#00F2FE"/>
					<stop  offset="0.1091" style="stop-color:#0ADFFA"/>
					<stop  offset="0.7251" style="stop-color:#3E77E4"/>
					<stop  offset="1" style="stop-color:#534DDB"/>
				</linearGradient>
				<path style="fill:url(#SVGID_00000110451786905336375360000010129176653765355689_);" d="M401.152,224.569l21.347,45.472
					l-2.559,6.934l-3.22,1.512l-23.552-50.17c-11.289-24.047-40.041-34.439-64.101-23.144
					c-24.06,11.295-34.433,40.054-23.144,64.101l23.552,50.17l-7.985,3.748l-23.552-50.17c-13.357-28.452-1.072-62.478,27.38-75.834
					C353.783,183.826,387.796,196.117,401.152,224.569z"/>
			</g>
			
				<linearGradient id="SVGID_00000157271425639681817140000008663122198597554871_" gradientUnits="userSpaceOnUse" x1="805.1794" y1="440.6002" x2="805.1794" y2="934.4409" gradientTransform="matrix(0.9052 -0.425 0.425 0.9052 -550.0751 227.307)">
				<stop  offset="0" style="stop-color:#F5CB00"/>
				<stop  offset="1" style="stop-color:#DA344B"/>
			</linearGradient>
			<polygon style="fill:url(#SVGID_00000157271425639681817140000008663122198597554871_);" points="589.737,464.794 
				362.282,571.573 269.667,321.359 431.661,245.31 422.5,270.042 419.941,276.976 382.857,377.114 395.961,450.346 
				405.951,506.151 449.287,469.599 506.151,421.629 529.25,360.408 579.879,447.774 			"/>
			<g>
				
					<linearGradient id="SVGID_00000072263719966263264010000005941120457714237591_" gradientUnits="userSpaceOnUse" x1="407.968" y1="2180.8259" x2="407.968" y2="2409.0952" gradientTransform="matrix(-0.9406 -0.3396 0.3396 -0.9406 4.8613 2818.4368)">
					<stop  offset="0" style="stop-color:#00F2FE"/>
					<stop  offset="0.1091" style="stop-color:#0ADFFA"/>
					<stop  offset="0.7251" style="stop-color:#3E77E4"/>
					<stop  offset="1" style="stop-color:#534DDB"/>
				</linearGradient>
				<polygon style="fill:url(#SVGID_00000072263719966263264010000005941120457714237591_);" points="405.816,445.667 
					444.686,459.702 413.096,486.349 				"/>
				
					<linearGradient id="SVGID_00000060013883628404630620000017491638922655942044_" gradientUnits="userSpaceOnUse" x1="790.2952" y1="615.2985" x2="1077.7063" y2="327.8874" gradientTransform="matrix(0.9052 -0.425 0.425 0.9052 -550.0751 227.307)">
					<stop  offset="0" style="stop-color:#F5CB00"/>
					<stop  offset="1" style="stop-color:#DA344B"/>
				</linearGradient>
				<polygon style="fill:url(#SVGID_00000060013883628404630620000017491638922655942044_);" points="394.489,382.378 
					493.833,418.246 449.945,455.266 404.602,438.895 				"/>
				
					<linearGradient id="SVGID_00000085208291827483661770000002474775552217190335_" gradientUnits="userSpaceOnUse" x1="885.1003" y1="435.5907" x2="885.1003" y2="621.7921" gradientTransform="matrix(0.9052 -0.425 0.425 0.9052 -550.0751 227.307)">
					<stop  offset="0" style="stop-color:#00F2FE"/>
					<stop  offset="0.1091" style="stop-color:#0ADFFA"/>
					<stop  offset="0.7251" style="stop-color:#3E77E4"/>
					<stop  offset="1" style="stop-color:#534DDB"/>
				</linearGradient>
				<polygon style="fill:url(#SVGID_00000085208291827483661770000002474775552217190335_);" points="520.407,344.648 
					497.157,409.043 471.051,399.617 502.258,313.184 				"/>
				
					<linearGradient id="SVGID_00000073693833047744298590000010399525453667344556_" gradientUnits="userSpaceOnUse" x1="867.7401" y1="403.7144" x2="867.7401" y2="863.7381" gradientTransform="matrix(0.9052 -0.425 0.425 0.9052 -550.0751 227.307)">
					<stop  offset="0" style="stop-color:#00F2FE"/>
					<stop  offset="0.1091" style="stop-color:#0ADFFA"/>
					<stop  offset="0.7251" style="stop-color:#3E77E4"/>
					<stop  offset="1" style="stop-color:#534DDB"/>
				</linearGradient>
				<polygon style="fill:url(#SVGID_00000073693833047744298590000010399525453667344556_);" points="498.14,306.039 
					466.228,394.395 465.113,397.484 460.126,395.684 429.849,384.741 473.616,263.52 				"/>
				
					<linearGradient id="SVGID_00000093151391991650156880000011444835190784396464_" gradientUnits="userSpaceOnUse" x1="853.2836" y1="305.7114" x2="853.2836" y2="571.9883" gradientTransform="matrix(0.9052 -0.425 0.425 0.9052 -550.0751 227.307)">
					<stop  offset="0" style="stop-color:#00F2FE"/>
					<stop  offset="0.1091" style="stop-color:#0ADFFA"/>
					<stop  offset="0.7251" style="stop-color:#3E77E4"/>
					<stop  offset="1" style="stop-color:#534DDB"/>
				</linearGradient>
				<polygon style="fill:url(#SVGID_00000093151391991650156880000011444835190784396464_);" points="469.479,256.367 
					433.611,355.74 423.91,382.608 397.818,373.176 446.499,238.345 456.4,233.697 				"/>
			</g>
			
				<linearGradient id="SVGID_00000031174929669946132040000009633259115248511408_" gradientUnits="userSpaceOnUse" x1="805.1794" y1="494.4545" x2="805.1794" y2="1162.4791" gradientTransform="matrix(0.9052 -0.425 0.425 0.9052 -550.0751 227.307)">
				<stop  offset="0" style="stop-color:#F5CB00"/>
				<stop  offset="1" style="stop-color:#DA344B"/>
			</linearGradient>
			<polygon style="fill:url(#SVGID_00000031174929669946132040000009633259115248511408_);" points="589.737,464.794 
				362.282,571.573 269.667,321.359 288.87,312.344 383.666,523.337 579.879,447.774 			"/>
		</g>
	</g>
</g>
<g id="OBJECTS">
	<g>
		<g>
			
				<linearGradient id="SVGID_00000137133367849230150000000017663437109917544877_" gradientUnits="userSpaceOnUse" x1="723.8605" y1="196.1526" x2="723.8605" y2="262.3641" gradientTransform="matrix(0.9052 -0.425 0.425 0.9052 -550.0751 227.307)">
				<stop  offset="0" style="stop-color:#00F2FE"/>
				<stop  offset="0.1091" style="stop-color:#0ADFFA"/>
				<stop  offset="0.7251" style="stop-color:#3E77E4"/>
				<stop  offset="1" style="stop-color:#534DDB"/>
			</linearGradient>
			<path style="fill:url(#SVGID_00000137133367849230150000000017663437109917544877_);" d="M233.188,113.346l12.571,26.778
				l-1.507,4.083l-1.896,0.89l-13.87-29.544c-6.648-14.161-23.579-20.281-37.748-13.629c-14.169,6.651-20.277,23.587-13.629,37.748
				l13.87,29.544l-4.702,2.207l-13.87-29.544c-7.866-16.755-0.631-36.792,16.124-44.657
				C205.293,89.353,225.322,96.591,233.188,113.346z"/>
		</g>
		
			<linearGradient id="SVGID_00000100344594890304188890000009365597729353185425_" gradientUnits="userSpaceOnUse" x1="723.8529" y1="252.5821" x2="723.8529" y2="543.3961" gradientTransform="matrix(0.9052 -0.425 0.425 0.9052 -550.0751 227.307)">
			<stop  offset="0" style="stop-color:#F5CB00"/>
			<stop  offset="1" style="stop-color:#DA344B"/>
		</linearGradient>
		<polygon style="fill:url(#SVGID_00000100344594890304188890000009365597729353185425_);" points="344.242,254.811 
			210.298,317.691 155.758,170.344 251.154,125.56 245.759,140.124 244.252,144.208 222.414,203.177 230.131,246.302 
			236.014,279.165 261.534,257.64 295.02,229.391 308.622,193.339 338.437,244.787 		"/>
		<g>
			
				<linearGradient id="SVGID_00000078765574397606747780000009526756715033410189_" gradientUnits="userSpaceOnUse" x1="644.8807" y1="2390.1331" x2="644.8807" y2="2524.5566" gradientTransform="matrix(-0.9406 -0.3396 0.3396 -0.9406 4.8613 2818.4368)">
				<stop  offset="0" style="stop-color:#00F2FE"/>
				<stop  offset="0.1091" style="stop-color:#0ADFFA"/>
				<stop  offset="0.7251" style="stop-color:#3E77E4"/>
				<stop  offset="1" style="stop-color:#534DDB"/>
			</linearGradient>
			<polygon style="fill:url(#SVGID_00000078765574397606747780000009526756715033410189_);" points="235.934,243.547 
				258.824,251.811 240.221,267.503 			"/>
			
				<linearGradient id="SVGID_00000076584380909225747150000015607194696402395061_" gradientUnits="userSpaceOnUse" x1="715.0878" y1="355.4588" x2="884.3389" y2="186.2076" gradientTransform="matrix(0.9052 -0.425 0.425 0.9052 -550.0751 227.307)">
				<stop  offset="0" style="stop-color:#F5CB00"/>
				<stop  offset="1" style="stop-color:#DA344B"/>
			</linearGradient>
			<polygon style="fill:url(#SVGID_00000076584380909225747150000015607194696402395061_);" points="229.264,206.277 
				287.766,227.399 261.921,249.2 235.219,239.559 			"/>
			
				<linearGradient id="SVGID_00000131359041495802744350000013145725101610499511_" gradientUnits="userSpaceOnUse" x1="770.9167" y1="249.632" x2="770.9167" y2="359.2827" gradientTransform="matrix(0.9052 -0.425 0.425 0.9052 -550.0751 227.307)">
				<stop  offset="0" style="stop-color:#00F2FE"/>
				<stop  offset="0.1091" style="stop-color:#0ADFFA"/>
				<stop  offset="0.7251" style="stop-color:#3E77E4"/>
				<stop  offset="1" style="stop-color:#534DDB"/>
			</linearGradient>
			<polygon style="fill:url(#SVGID_00000131359041495802744350000013145725101610499511_);" points="303.415,184.059 
				289.723,221.98 274.35,216.429 292.727,165.53 			"/>
			
				<linearGradient id="SVGID_00000157988235954596908900000018004688176392098180_" gradientUnits="userSpaceOnUse" x1="760.6937" y1="230.8607" x2="760.6937" y2="501.7603" gradientTransform="matrix(0.9052 -0.425 0.425 0.9052 -550.0751 227.307)">
				<stop  offset="0" style="stop-color:#00F2FE"/>
				<stop  offset="0.1091" style="stop-color:#0ADFFA"/>
				<stop  offset="0.7251" style="stop-color:#3E77E4"/>
				<stop  offset="1" style="stop-color:#534DDB"/>
			</linearGradient>
			<polygon style="fill:url(#SVGID_00000157988235954596908900000018004688176392098180_);" points="290.302,161.322 
				271.51,213.353 270.853,215.173 267.916,214.113 250.087,207.669 275.86,136.283 			"/>
			
				<linearGradient id="SVGID_00000150087576320315536160000016792374612640051079_" gradientUnits="userSpaceOnUse" x1="752.1805" y1="173.1484" x2="752.1805" y2="329.9542" gradientTransform="matrix(0.9052 -0.425 0.425 0.9052 -550.0751 227.307)">
				<stop  offset="0" style="stop-color:#00F2FE"/>
				<stop  offset="0.1091" style="stop-color:#0ADFFA"/>
				<stop  offset="0.7251" style="stop-color:#3E77E4"/>
				<stop  offset="1" style="stop-color:#534DDB"/>
			</linearGradient>
			<polygon style="fill:url(#SVGID_00000150087576320315536160000016792374612640051079_);" points="273.424,132.072 
				252.302,190.59 246.589,206.412 231.224,200.858 259.892,121.458 265.722,118.721 			"/>
		</g>
		
			<linearGradient id="SVGID_00000161616629006863440650000013910384307022339973_" gradientUnits="userSpaceOnUse" x1="723.8529" y1="284.2959" x2="723.8529" y2="677.6837" gradientTransform="matrix(0.9052 -0.425 0.425 0.9052 -550.0751 227.307)">
			<stop  offset="0" style="stop-color:#F5CB00"/>
			<stop  offset="1" style="stop-color:#DA344B"/>
		</linearGradient>
		<polygon style="fill:url(#SVGID_00000161616629006863440650000013910384307022339973_);" points="344.242,254.811 
			210.298,317.691 155.758,170.344 167.066,165.035 222.89,289.285 338.437,244.787 		"/>
	</g>
</g>
<g id="TEXTS">
	<g>
		<g>
			<g>
				<text transform="matrix(1 0 0 1 124.028 371.3518)"><tspan x="0" y="0" style="font-family:'Barlow-Bold'; font-size:43.327px;">BRAND</tspan><tspan x="138.125" y="0" style="font-family:'Barlow-ExtraBold'; font-size:43.327px;"> </tspan><tspan x="146.79" y="0" style="font-family:'Barlow-Medium'; font-size:43.327px;">LOGO</tspan></text>
			</g>
			<g>
				<text transform="matrix(1 0 0 1 181.2878 402.4505)" style="font-family:'Barlow-Medium'; font-size:21.1562px;">YOUR TAGLINE</text>
			</g>
		</g>
	</g>
</g>
</svg>
